<?xml version="1.0" encoding="utf-8"?>
<!-- Generator: Adobe Illustrator 26.0.1, SVG Export Plug-In . SVG Version: 6.00 Build 0)  -->
<svg version="1.1" xmlns="http://www.w3.org/2000/svg" xmlns:xlink="http://www.w3.org/1999/xlink" x="0px" y="0px"
	 viewBox="0 0 900 900" style="enable-background:new 0 0 900 900;" xml:space="preserve">
<style type="text/css">
	.st0{display:none;}
	.st1{display:inline;}
	.st2{fill:#FFFFFF;}
	.st3{display:inline;fill:#FFFFFF;stroke:#000000;stroke-width:20;stroke-miterlimit:10;}
	.st4{fill:#57BA98;}
	.st5{fill:#57BA98;stroke:#57BA98;stroke-miterlimit:10;}
	.st6{fill:#57BA98;stroke:#57BA98;stroke-width:30;stroke-miterlimit:10;}
	.st7{fill:#006837;}
</style>
<g id="Layer_1" class="st0">
	<g class="st1">
		<path class="st2" d="M450,786c-89.75,0-174.13-34.95-237.59-98.41S114,539.75,114,450c0-89.75,34.95-174.13,98.41-237.59
			S360.25,114,450,114c89.75,0,174.13,34.95,237.59,98.41S786,360.25,786,450c0,89.75-34.95,174.13-98.41,237.59S539.75,786,450,786
			z"/>
		<path d="M450,124c44.02,0,86.71,8.62,126.89,25.61c38.82,16.42,73.68,39.93,103.63,69.87s53.45,64.81,69.87,103.63
			C767.38,363.29,776,405.98,776,450s-8.62,86.71-25.61,126.89c-16.42,38.82-39.93,73.68-69.87,103.63s-64.81,53.45-103.63,69.87
			C536.71,767.38,494.02,776,450,776s-86.71-8.62-126.89-25.61c-38.82-16.42-73.68-39.93-103.63-69.87s-53.45-64.81-69.87-103.63
			C132.62,536.71,124,494.02,124,450s8.62-86.71,25.61-126.89c16.42-38.82,39.93-73.68,69.87-103.63s64.81-53.45,103.63-69.87
			C363.29,132.62,405.98,124,450,124 M450,104c-191.09,0-346,154.91-346,346s154.91,346,346,346s346-154.91,346-346
			S641.09,104,450,104L450,104z"/>
	</g>
	<rect x="570" y="219" class="st3" width="60" height="127"/>
	<g class="st1">
		<g>
			<polygon class="st2" points="180.99,428 449.66,163.99 718.34,428 			"/>
			<path d="M449.66,178.01L693.89,418H205.43L449.66,178.01 M449.66,149.97L156.54,438h586.24L449.66,149.97L449.66,149.97z"/>
		</g>
		<g>
			<rect x="270" y="428" class="st2" width="359" height="236"/>
			<path d="M619,438v216H280V438H619 M639,418H260v256h379V418L639,418z"/>
		</g>
	</g>
	<rect x="418" y="546" class="st3" width="64" height="118"/>
</g>
<g id="Layer_2">
	<g>
		<path class="st4" d="M449,149c40.65,0,80.07,7.95,117.15,23.64c35.84,15.16,68.03,36.87,95.69,64.53
			c27.66,27.66,49.37,59.85,64.53,95.69C742.05,369.93,750,409.35,750,450s-7.95,80.07-23.64,117.15
			c-15.16,35.84-36.87,68.03-64.53,95.69c-27.66,27.66-59.85,49.37-95.69,64.53C529.07,743.05,489.65,751,449,751
			s-80.07-7.95-117.15-23.64c-35.84-15.16-68.03-36.87-95.69-64.53c-27.66-27.66-49.37-59.85-64.53-95.69
			C155.95,530.07,148,490.65,148,450s7.95-80.07,23.64-117.15c15.16-35.84,36.87-68.03,64.53-95.69s59.85-49.37,95.69-64.53
			C368.93,156.95,408.35,149,449,149 M449,104c-191.09,0-346,154.91-346,346s154.91,346,346,346s346-154.91,346-346
			S640.09,104,449,104L449,104z"/>
	</g>
	<g>
		<ellipse class="st5" cx="449.34" cy="453.65" rx="195.93" ry="196.06"/>
		<line class="st6" x1="550.67" y1="208.18" x2="348.73" y2="690.94"/>
		<line class="st6" x1="211.44" y1="348.09" x2="693.87" y2="550.17"/>
		<line class="st6" x1="210.89" y1="547.92" x2="694.81" y2="349.45"/>
		<line class="st6" x1="552.31" y1="692" x2="353.98" y2="207.74"/>
	</g>
	<g class="st0">
		<g class="st1">
			<path d="M599.61,527.33c-68.64,39.63-157.36,14.46-198.17-56.22c-40.81-70.68-18.24-160.1,50.4-199.73
				c16.71-9.65,34.61-15.44,52.72-17.69c-48.5-13.3-102.08-7.95-149.07,19.18C262.21,326.72,230.25,446,284.1,539.27
				c53.85,93.27,173.12,125.23,266.4,71.38c47.51-27.43,79.1-71.84,91.56-121.15C630.94,504.5,616.71,517.46,599.61,527.33z"/>
		</g>
	</g>
</g>
<g id="Layer_3" class="st0">
	<g class="st1">
		<g>
			<ellipse class="st7" cx="524" cy="450" rx="189" ry="208"/>
		</g>
		<g>
			<path d="M524,252c47.47,0,92.19,20.36,125.94,57.33c16.59,18.18,29.64,39.38,38.76,63.01c9.49,24.57,14.3,50.69,14.3,77.65
				s-4.81,53.08-14.3,77.65c-9.12,23.63-22.17,44.83-38.76,63.01C616.19,627.64,571.47,648,524,648s-92.19-20.36-125.94-57.33
				c-16.59-18.18-29.64-39.38-38.76-63.01c-9.49-24.57-14.3-50.7-14.3-77.65s4.81-53.08,14.3-77.65
				c9.12-23.63,22.17-44.83,38.76-63.01C431.81,272.36,476.53,252,524,252 M524,232c-109.9,0-199,97.6-199,218s89.1,218,199,218
				s199-97.6,199-218S633.9,232,524,232L524,232z"/>
		</g>
	</g>
</g>
</svg>
